# xmcd CD database file
#
# Track frame offsets:
#	187
#	22452
#	41720
#	54775
#	72715
#	88237
#	103977
#	119205
#	142872
#	165250
#
# Disc length: 2519 seconds
#
# Revision: 0
# Processed by: cddbd v1.5.2PL0 Copyright (c) Steve Scherf et al.
# Submitted via: CDex 1.51
#
DISCID=9509d50a
DTITLE=Steve Jolliffe - The Japanese Way
DYEAR=1900
DGENRE=New Age
TTITLE0=Flowers on the Wing
TTITLE1=Silent Warrior
TTITLE2=The Lotus Puzzle
TTITLE3=Still Waters
TTITLE4=Air Spirals
TTITLE5=Silk Waves
TTITLE6=Paper Kites
TTITLE7=Street of Dreams
TTITLE8=The City Awakes
TTITLE9=Sunrise Futures
EXTD=
EXTT0=
EXTT1=
EXTT2=
EXTT3=
EXTT4=
EXTT5=
EXTT6=
EXTT7=
EXTT8=
EXTT9=
PLAYORDER=
